HIERARCHY
ROOT Hips
{
	OFFSET 0.000000 0.000000 0.000000
	CHANNELS 6 Xposition Yposition Zposition Zrotation Yrotation Xrotation 
	JOINT LeftUpLeg_virtual
	{
		OFFSET 0.000000 0.000000 0.000000
		CHANNELS 3 Zrotation Yrotation Xrotation
		JOINT LeftUpLeg
		{
			OFFSET 10.205400 -3.823500 0.155100
			CHANNELS 3 Zrotation Yrotation Xrotation
			JOINT LeftLeg
			{
				OFFSET 0.708757 -12.982077 0.567790
				CHANNELS 3 Zrotation Yrotation Xrotation
				JOINT LeftFoot
				{
					OFFSET -0.708756 -10.717838 -2.184338
					CHANNELS 3 Zrotation Yrotation Xrotation
					JOINT LeftToeBase
					{
						OFFSET 0.108149 -7.191104 7.560241
						CHANNELS 3 Zrotation Yrotation Xrotation
						End Site
						{
							OFFSET 0.000000 0.000000 0.000000
						}
					}
				}
			}
		}
	}
	JOINT RightUpLeg_virtual
	{
		OFFSET 0.000000 0.000000 0.000000
		CHANNELS 3 Zrotation Yrotation Xrotation
		JOINT RightUpLeg
		{
			OFFSET -10.205400 -3.823500 0.005500
			CHANNELS 3 Zrotation Yrotation Xrotation
			JOINT RightLeg
			{
				OFFSET -0.708756 -12.982134 0.610632
				CHANNELS 3 Zrotation Yrotation Xrotation
				JOINT RightFoot
				{
					OFFSET 0.708754 -10.717769 -1.945823
					CHANNELS 3 Zrotation Yrotation Xrotation
					JOINT RightToeBase
					{
						OFFSET -0.108140 -7.191069 7.372968
						CHANNELS 3 Zrotation Yrotation Xrotation
						End Site
						{
							OFFSET 0.000000 0.000000 0.000000
						}
					}
				}
			}
		}
	}
	JOINT Spine_virtual
	{
		OFFSET 0.000000 0.000000 0.000000
		CHANNELS 3 Zrotation Yrotation Xrotation
		JOINT Spine
		{
			OFFSET 0.000000 6.876099 0.125700
			CHANNELS 3 Zrotation Yrotation Xrotation
			JOINT Spine1
			{
				OFFSET 0.000000 8.022060 0.146608
				CHANNELS 3 Zrotation Yrotation Xrotation
				JOINT Spine2
				{
					OFFSET 0.000000 9.168068 0.167552
					CHANNELS 3 Zrotation Yrotation Xrotation
					JOINT Neck_virtual
					{
						OFFSET 0.000000 0.000000 0.000000
						CHANNELS 3 Zrotation Yrotation Xrotation
						JOINT Neck
						{
							OFFSET 0.000000 10.314075 0.188496
							CHANNELS 3 Zrotation Yrotation Xrotation
							JOINT Head
							{
								OFFSET 0.000000 7.643700 -2.377400
								CHANNELS 3 Zrotation Yrotation Xrotation
								End Site
								{
									OFFSET 0.000000 0.000000 0.000000
								}
							}
						}
					}
					JOINT LeftShoulder_virtual
					{
						OFFSET 0.000000 0.000000 0.000000
						CHANNELS 3 Zrotation Yrotation Xrotation
						JOINT LeftShoulder
						{
							OFFSET 4.392200 8.824978 0.174984
							CHANNELS 3 Zrotation Yrotation Xrotation
							JOINT LeftArm
							{
								OFFSET 8.771219 -2.981674 -0.026999
								CHANNELS 3 Zrotation Yrotation Xrotation
								JOINT LeftForeArm
								{
									OFFSET 8.512804 0.000000 -0.000000
									CHANNELS 3 Zrotation Yrotation Xrotation
									JOINT LeftHand
									{
										OFFSET 18.484802 0.000000 -0.000000
										CHANNELS 3 Zrotation Yrotation Xrotation
										End Site
										{
											OFFSET 0.000000 0.000000 0.000000
										}
									}
								}
							}
						}
					}
					JOINT RightShoulder_virtual
					{
						OFFSET 0.000000 0.000000 0.000000
						CHANNELS 3 Zrotation Yrotation Xrotation
						JOINT RightShoulder
						{
							OFFSET -4.392200 8.824993 0.141379
							CHANNELS 3 Zrotation Yrotation Xrotation
							JOINT RightArm
							{
								OFFSET -8.771282 -2.981682 -0.094208
								CHANNELS 3 Zrotation Yrotation Xrotation
								JOINT RightForeArm
								{
									OFFSET -8.494598 0.000000 0.000000
									CHANNELS 3 Zrotation Yrotation Xrotation
									JOINT RightHand
									{
										OFFSET -18.483803 0.000000 0.000001
										CHANNELS 3 Zrotation Yrotation Xrotation
										End Site
										{
											OFFSET 0.000000 0.000000 0.000000
										}
									}
								}
							}
						}
					}
				}
			}
		}
	}
}
MOTION
Frames: 4
Frame Time: 0.033333
12.647773 10.162719 -1.389004 -179.957480 -24.476859 179.830384 28.162352 1.832250 -10.920933 -23.917553 -1.354395 -102.572468 17.783128 -25.191476 126.480801 -39.331504 -14.805010 11.625357 0.000000 0.000000 0.000000 28.730832 8.253432 -11.255722 11.262653 9.930000 -92.736525 -8.730980 -3.583756 138.450462 -22.528723 37.177505 -14.628652 0.000000 0.000000 0.000000 20.886522 6.082526 -12.723249 1.936822 -9.848144 -4.453510 -4.768733 -4.163405 13.646909 0.139937 -0.140886 0.033983 -4.765209 -2.596856 16.450430 -4.924621 -11.217217 15.040018 0.000000 0.000000 0.000000 -1.144871 -2.041510 10.560497 -15.089872 -9.472219 3.877485 -24.054309 -27.150605 29.387234 -65.279328 -87.531374 70.586399 0.000000 0.000000 0.000000 -8.104680 -0.339839 9.755363 23.081035 6.183531 1.346482 69.764078 -31.153845 -27.920917 -4.094379 41.762386 -7.202974 0.000000 0.000000 0.000000 
12.982379 9.254597 -2.088779 -179.847214 -29.446294 -179.947932 28.293569 1.090396 -14.112375 -22.665624 0.644124 -104.266874 17.047906 -26.952430 127.504564 -40.108688 -13.760805 13.079309 0.000000 0.000000 0.000000 27.688593 6.345752 -13.725468 12.998697 12.051032 -91.617815 -6.807346 -3.231985 138.124607 -21.160886 36.975581 -21.721168 0.000000 0.000000 0.000000 20.029651 6.050272 -16.669975 0.347607 -10.173746 -4.223238 -5.064261 -4.064351 13.901971 0.018614 -0.209279 0.015140 -4.978452 -2.251274 16.947513 -4.498666 -11.116293 17.536640 0.000000 0.000000 0.000000 -1.351402 -1.535865 10.741722 -15.968702 -9.094705 4.159281 -24.984588 -26.853951 34.109108 -94.325329 -88.066294 99.634818 0.000000 0.000000 0.000000 -8.412960 0.106284 10.028615 21.612018 6.877407 1.988342 76.277271 -34.544761 -25.932620 -5.108701 42.291599 -7.673749 0.000000 0.000000 0.000000 
13.226745 8.511116 -2.527770 -179.899342 -33.477879 179.968204 28.214658 -0.287379 -17.144057 -21.599355 2.671556 -105.720229 16.747038 -28.292629 127.808358 -39.718769 -12.589210 13.693038 0.000000 0.000000 0.000000 26.207308 4.809600 -15.338102 16.501437 13.498536 -89.928955 -6.158325 -2.492215 138.232483 -18.591650 35.686748 -25.081899 0.000000 0.000000 0.000000 19.383518 5.526065 -19.316451 -1.003648 -9.914143 -3.794223 -4.984079 -3.663559 14.096489 -0.012225 -0.244389 0.006106 -5.132048 -1.783349 17.247332 -3.780092 -11.268825 20.131504 0.000000 0.000000 0.000000 -1.551213 -1.179389 10.857259 -17.063474 -8.839019 4.172829 -26.741560 -25.939923 38.279918 -127.045671 -87.943480 132.493458 0.000000 0.000000 0.000000 -8.715907 0.434107 10.137499 20.048654 7.663783 2.560789 82.024377 -38.222753 -23.397218 -6.309143 42.922125 -8.448869 0.000000 0.000000 0.000000 
13.315074 7.901018 -2.635638 -179.836641 -36.474078 179.999035 28.396476 -1.657921 -20.019235 -21.547573 3.933258 -106.837068 15.747988 -28.370963 129.348838 -40.841560 -12.696167 14.826269 0.000000 0.000000 0.000000 25.661150 3.688011 -17.464865 21.017344 13.379544 -87.890806 -7.317974 -1.532893 139.351350 -16.536340 30.628016 -24.998656 0.000000 0.000000 0.000000 19.203825 4.950897 -21.126996 -1.918375 -9.574924 -3.534550 -5.301635 -3.219830 14.179629 0.008631 -0.099012 0.038071 -5.132234 -1.505276 17.361964 -2.876688 -11.556473 22.588262 0.000000 0.000000 0.000000 -1.646256 -0.923686 10.826164 -17.956636 -8.556075 4.283452 -28.902239 -24.825412 42.171104 -148.928819 -87.374082 154.643693 0.000000 0.000000 0.000000 -8.821118 0.785680 10.094254 18.560824 8.836466 3.190326 86.739407 -41.583196 -20.826666 -7.020270 43.311660 -8.722701 0.000000 0.000000 0.000000 
